<svg xmlns="http://www.w3.org/2000/svg"  viewBox="0 0 64 64" width="64px" height="64px"><linearGradient id="wDH_RXki4s7yVUpBWQZnma" x1="41.454" x2="41.454" y1="21.588" y2="42.034" gradientUnits="userSpaceOnUse"><stop offset="0" stop-color="#6dc7ff"/><stop offset="1" stop-color="#e6abff"/></linearGradient><rect width="4.939" height="20.446" x="38.985" y="21.588" fill="url(#wDH_RXki4s7yVUpBWQZnma)"/><linearGradient id="wDH_RXki4s7yVUpBWQZnmb" x1="8.674" x2="8.674" y1="21.588" y2="42.034" gradientUnits="userSpaceOnUse"><stop offset="0" stop-color="#6dc7ff"/><stop offset="1" stop-color="#e6abff"/></linearGradient><path fill="url(#wDH_RXki4s7yVUpBWQZnmb)" d="M10.756,27.963H7.597c-1.12,0-1.666,0.287-1.666,0.287v-6.662H0.993v20.417h4.911v-8.213 c0-0.718,0.603-1.321,1.321-1.321h2.872c0.718,0,1.321,0.603,1.321,1.321v8.242h4.939v-8.902 C16.356,29.399,13.858,27.963,10.756,27.963z"/><linearGradient id="wDH_RXki4s7yVUpBWQZnmc" x1="27.541" x2="27.541" y1="27.963" y2="42.006" gradientUnits="userSpaceOnUse"><stop offset="0" stop-color="#6dc7ff"/><stop offset="1" stop-color="#e6abff"/></linearGradient><path fill="url(#wDH_RXki4s7yVUpBWQZnmc)" d="M30.312,36.205c0,0.718-0.603,1.321-1.321,1.321H26.12c-0.718,0-1.321-0.603-1.321-1.321 v-8.242h-4.939v8.644c0,3.532,2.269,5.399,5.6,5.399h4.824c3.073,0,4.939-2.211,4.939-5.399v-8.644h-4.939 C30.283,27.963,30.312,35.946,30.312,36.205z"/><linearGradient id="wDH_RXki4s7yVUpBWQZnmd" x1="55.31" x2="55.31" y1="27.963" y2="42.006" gradientUnits="userSpaceOnUse"><stop offset="0" stop-color="#6dc7ff"/><stop offset="1" stop-color="#e6abff"/></linearGradient><path fill="url(#wDH_RXki4s7yVUpBWQZnmd)" d="M58.052,27.963c0.029,0,0.029,7.983,0.029,8.242c0,0.718-0.603,1.321-1.321,1.321h-2.872 c-0.718,0-1.321-0.603-1.321-1.321v-8.242h-4.939v8.644c0,3.532,2.269,5.399,5.6,5.399h4.824c3.073,0,4.939-2.211,4.939-5.399 v-8.644H58.052z"/><g><linearGradient id="wDH_RXki4s7yVUpBWQZnme" x1="41.454" x2="41.454" y1="20.588" y2="43.034" gradientUnits="userSpaceOnUse"><stop offset="0" stop-color="#1a6dff"/><stop offset="1" stop-color="#c822ff"/></linearGradient><path fill="url(#wDH_RXki4s7yVUpBWQZnme)" d="M43.924,43.034h-4.939c-0.552,0-1-0.448-1-1V21.588c0-0.552,0.448-1,1-1h4.939 c0.552,0,1,0.448,1,1v20.446C44.924,42.586,44.476,43.034,43.924,43.034z M39.984,41.034h2.939V22.588h-2.939V41.034z"/><linearGradient id="wDH_RXki4s7yVUpBWQZnmf" x1="8.674" x2="8.674" y1="20.588" y2="43.034" gradientUnits="userSpaceOnUse"><stop offset="0" stop-color="#1a6dff"/><stop offset="1" stop-color="#c822ff"/></linearGradient><path fill="url(#wDH_RXki4s7yVUpBWQZnmf)" d="M16.356,43.034h-4.939c-0.552,0-1-0.448-1-1v-8.242c0-0.165-0.156-0.321-0.321-0.321 H7.224c-0.165,0-0.321,0.156-0.321,0.321v8.213c0,0.552-0.448,1-1,1H0.993c-0.552,0-1-0.448-1-1V21.588c0-0.552,0.448-1,1-1 h4.939c0.552,0,1,0.448,1,1v5.406c0.201-0.02,0.423-0.031,0.666-0.031h3.159c4.132,0,6.6,2.306,6.6,6.169v8.902 C17.356,42.586,16.908,43.034,16.356,43.034z M12.417,41.034h2.939v-7.902c0-2.766-1.547-4.169-4.6-4.169H7.598 c-0.815,0-1.219,0.182-1.224,0.184c-0.309,0.143-0.683,0.124-0.97-0.061c-0.287-0.184-0.473-0.495-0.473-0.836v-5.662H1.993 v18.417h2.911v-7.213c0-1.28,1.041-2.321,2.321-2.321h2.872c1.28,0,2.321,1.041,2.321,2.321V41.034z"/><g><linearGradient id="wDH_RXki4s7yVUpBWQZnmg" x1="27.541" x2="27.541" y1="26.963" y2="43.006" gradientUnits="userSpaceOnUse"><stop offset="0" stop-color="#1a6dff"/><stop offset="1" stop-color="#c822ff"/></linearGradient><path fill="url(#wDH_RXki4s7yVUpBWQZnmg)" d="M30.283,43.006h-4.824c-4.071,0-6.6-2.452-6.6-6.399v-8.644c0-0.552,0.448-1,1-1h4.939 c0.552,0,1,0.448,1,1v8.242c0,0.165,0.156,0.321,0.321,0.321h2.872c0.165,0,0.321-0.156,0.321-0.321 c0-0.259-0.029-8.238-0.029-8.238c-0.001-0.266,0.104-0.521,0.292-0.709c0.188-0.188,0.443-0.294,0.708-0.294h4.939 c0.552,0,1,0.448,1,1v8.644C36.223,40.434,33.836,43.006,30.283,43.006z M20.859,28.963v7.644c0,3.828,2.882,4.399,4.6,4.399 h4.824c2.43,0,3.939-1.686,3.939-4.399v-7.644h-2.936c0.008,2.154,0.025,7.04,0.025,7.242c0,1.28-1.041,2.321-2.321,2.321H26.12 c-1.28,0-2.321-1.041-2.321-2.321v-7.242H20.859z"/></g><g><linearGradient id="wDH_RXki4s7yVUpBWQZnmh" x1="55.31" x2="55.31" y1="26.963" y2="43.006" gradientUnits="userSpaceOnUse"><stop offset="0" stop-color="#1a6dff"/><stop offset="1" stop-color="#c822ff"/></linearGradient><path fill="url(#wDH_RXki4s7yVUpBWQZnmh)" d="M58.052,43.006h-4.824c-4.071,0-6.6-2.452-6.6-6.399v-8.644c0-0.552,0.448-1,1-1h4.939 c0.552,0,1,0.448,1,1v8.242c0,0.165,0.156,0.321,0.321,0.321h2.872c0.165,0,0.321-0.156,0.321-0.321 c0-0.259-0.029-8.238-0.029-8.238c-0.001-0.266,0.104-0.521,0.292-0.709c0.188-0.188,0.443-0.294,0.708-0.294h4.939 c0.552,0,1,0.448,1,1v8.644C63.992,40.434,61.605,43.006,58.052,43.006z M48.628,28.963v7.644c0,3.828,2.882,4.399,4.6,4.399 h4.824c2.43,0,3.939-1.686,3.939-4.399v-7.644h-2.936c0.008,2.154,0.025,7.04,0.025,7.242c0,1.28-1.041,2.321-2.321,2.321 h-2.872c-1.28,0-2.321-1.041-2.321-2.321v-7.242H48.628z"/></g></g></svg>